# xmcd CD database file
# 
# Track frame offsets:
# 	150
# 	12650
# 	30032
# 	48407
# 	70896
# 	85576
# 	99092
# 	114231
# 	125732
# 	144941
# 
# Disc length: 2170 seconds
# 
# Submitted via: Nero 5.5.10.20
# 
# Revision: 0
# Processed by: cddbd v1.4PL0 Copyright (c) Steve Scherf et al.
#
DISCID=7208780a
DTITLE=Steven Fromholz - Cowjazz
DYEAR=1900
DGENRE=
TTITLE0=Lady's Man
TTITLE1=Isla Mujeres
TTITLE2=In My Solitude
TTITLE3=I'd Have To Be Crazy
TTITLE4=A Candle Burns
TTITLE5=Blue Would I Be
TTITLE6=Cheatin' Home To Me
TTITLE7=Makin' My Getaway
TTITLE8=Here's That Rainy Day
TTITLE9=Jane's House
EXTD=
EXTT0=
EXTT1=
EXTT2=
EXTT3=
EXTT4=
EXTT5=
EXTT6=
EXTT7=
EXTT8=
EXTT9=
PLAYORDER=
